<?xml version="1.0" encoding="UTF-8"?><svg id="Layer_2" xmlns="http://www.w3.org/2000/svg" viewBox="0 0 82.52 82.76"><defs><style>.cls-1{fill:#fe9f1d;}.cls-2{fill:#fe9f1b;}.cls-3{fill:#1253f0;}.cls-4{fill:#1152f0;}</style></defs><g id="Layer_6"><g id="Hn0ktJ"><path class="cls-4" d="M36.74,18.01c-15.49.54-26.65,13.37-26.18,27.87s12.07,26.05,26.54,26.32c14.64.27,27.45-11.25,27.73-26.58.05-2.9,2.02-5.25,4.39-5.84,2.12-.53,6.1.99,6.25,3.83,1.07,21.4-16.29,38.88-37.33,39.14C17.18,83.01-.23,65.84,0,44.21.22,23.94,17.59,6.04,39.01,7.14c2.52.13,4.4,3.87,4.16,5.75-.38,3-2.71,4.99-6.43,5.12Z"/><path class="cls-3" d="M36.92,53.73c12.86.93,7.05-14.5,15.01-14.35,3.31.06,5.71,2.61,5.55,6.17-.53,11.3-9.88,19.22-20.55,18.81s-19.04-9.46-18.75-20.3,8.8-19.21,20.2-19.03c2.45.04,4.8,2.92,4.89,5.1.34,8.14-13.5,3.09-14.34,13.93-.39,4.94,3.13,9.31,7.99,9.67Z"/><path class="cls-1" d="M72.06,33.54c-2.25-12.14-10.18-20.53-22.11-22.72-2.87-.53-4.86-2.87-4.78-5.73.07-2.69,2.74-5.55,6.01-5.02,16.32,2.64,28.89,14.97,31.31,31.5.36,2.44-1.92,5.15-3.79,5.79-2.21.76-6.08-.76-6.64-3.81Z"/><path class="cls-2" d="M60.51,37.03c-5.49,2.32-5.98-3.96-12.44-8.27-2.01-1.34-3.23-4.05-2.62-6.55.47-1.93,4.18-4.12,6.46-3.25,5.67,2.16,9.74,5.9,11.64,11.76.67,2.07-1.18,5.53-3.04,6.31Z"/></g></g></svg>